<?xml version="1.0" encoding="UTF-8" standalone="no"?>
<svg
   xmlns:dc="http://purl.org/dc/elements/1.1/"
   xmlns:cc="http://creativecommons.org/ns#"
   xmlns:rdf="http://www.w3.org/1999/02/22-rdf-syntax-ns#"
   xmlns:svg="http://www.w3.org/2000/svg"
   xmlns="http://www.w3.org/2000/svg"
   xmlns:sodipodi="http://sodipodi.sourceforge.net/DTD/sodipodi-0.dtd"
   xmlns:inkscape="http://www.inkscape.org/namespaces/inkscape"
   id="Capa_1"
   enable-background="new 0 0 479.055 479.055"
   height="512"
   viewBox="0 0 479.055 479.055"
   width="512"
   version="1.1"
   sodipodi:docname="wifi-n2.svg"
   inkscape:version="0.92.3 (2405546, 2018-03-11)">
  <metadata
     id="metadata9">
    <rdf:RDF>
      <cc:Work
         rdf:about="">
        <dc:format>image/svg+xml</dc:format>
        <dc:type
           rdf:resource="http://purl.org/dc/dcmitype/StillImage" />
        <dc:title></dc:title>
      </cc:Work>
    </rdf:RDF>
  </metadata>
  <defs
     id="defs7" />
  <sodipodi:namedview
     pagecolor="#ffffff"
     bordercolor="#666666"
     borderopacity="1"
     objecttolerance="10"
     gridtolerance="10"
     guidetolerance="10"
     inkscape:pageopacity="0"
     inkscape:pageshadow="2"
     inkscape:window-width="1920"
     inkscape:window-height="1025"
     id="namedview5"
     showgrid="false"
     inkscape:zoom="0.4609375"
     inkscape:cx="256"
     inkscape:cy="256"
     inkscape:window-x="0"
     inkscape:window-y="28"
     inkscape:window-maximized="1"
     inkscape:current-layer="Capa_1" />
  <path
     d="m474.309 152.643c-64.107-59.824-147.483-92.762-234.777-92.762-87.177 0-170.568 33.245-234.807 93.61-6.023 5.658-6.33 15.117-.673 21.14l224.558 239.806c2.822 3.026 6.784 4.737 10.921 4.737h.015c4.137 0 8.099-1.725 10.936-4.751l224.558-240.611c2.705-2.909 4.152-6.769 4.006-10.731-.132-3.976-1.843-7.719-4.737-10.438zm-356.264 99.923c34.515-27.743 77.055-42.98 121.486-42.98 44.272 0 86.733 15.17 121.219 42.788l-61.861 66.291c-35.321-24.073-83.659-24-118.876.077 0 0-61.968-66.176-61.968-66.176zm121.472 129.723-38.917-41.562c23.571-14.141 54.116-14.205 77.759-.06-.001 0-38.842 41.622-38.842 41.622zm141.659-151.802c-40.087-32.777-89.754-50.842-141.644-50.842-52.057 0-101.819 18.145-141.944 51.074l-61.24-65.401c57.002-48.786 128.58-75.496 203.184-75.496 74.692 0 146.27 26.432 203.155 74.75 0 0-61.511 65.915-61.511 65.915z"
     id="path2" />
  <path
     style="fill:#88aa00;fill-opacity:1;stroke-width:2.16949153"
     d="m 236.7446,386.38913 c -10.40361,-11.21775 -18.91835,-21.02211 -18.92165,-21.78747 -0.014,-3.2421 19.574,-9.01536 33.62112,-9.9093 15.77581,-1.00395 40.02659,4.46537 41.67083,9.3981 0.43277,1.2983 -7.81749,11.43571 -18.33391,22.52756 l -19.12075,20.16702 z"
     id="path11"
     inkscape:connector-curvature="0"
     transform="scale(0.9356543)" />
  <path
     style="fill:#668000;fill-opacity:1;stroke-width:2.16949153"
     d="m 160.46881,304.92256 c -25.4406,-27.16152 -31.19768,-34.42837 -29.19102,-36.84625 4.72775,-5.69658 33.41046,-22.18557 49.97614,-28.73006 27.47261,-10.8534 47.89974,-13.97709 82.99457,-12.69141 33.09939,1.21258 50.66435,5.0511 76.29654,16.67329 14.73545,6.68137 42.15327,23.83969 42.15327,26.37989 0,0.82853 -14.22399,16.7119 -31.60887,35.29639 l -31.60886,33.78998 -10.24651,-5.19229 c -33.18881,-16.81805 -73.69921,-16.82515 -106.86506,-0.0187 l -10.20953,5.17356 z"
     id="path13"
     inkscape:connector-curvature="0"
     transform="scale(0.9356543)" />
  <path
     style="fill:#445500;fill-opacity:1;stroke-width:2.16949153"
     d="M 71.89809,210.56639 39.877538,176.6039 54.542159,165.87644 c 44.397582,-32.47772 78.993641,-48.79171 128.562921,-60.62466 27.89133,-6.65809 88.37329,-9.314243 117.57985,-5.16369 40.79416,5.79727 86.28573,21.17634 119.97948,40.56077 20.37013,11.71919 48.81356,32.49318 48.81356,35.65156 0,2.11857 -60.19064,67.11653 -62.15251,67.11653 -0.52729,0 -8.39539,-5.01822 -17.48465,-11.1516 -81.14679,-54.75729 -187.25588,-54.55594 -268.56623,0.50962 l -17.35594,11.75391 z"
     id="path15"
     inkscape:connector-curvature="0"
     transform="scale(0.9356543)" />
  <path
     style="fill:#445500;fill-opacity:1;stroke-width:2.16949153"
     d="m 238.43438,386.61143 c -9.45874,-10.47035 -17.54157,-20.06858 -17.96184,-21.3294 -1.19045,-3.57134 20.50156,-9.05152 35.82833,-9.05152 14.51682,0 32.35096,3.52629 34.37191,6.79626 1.43163,2.31643 -2.5831,7.56447 -21.02322,27.4815 l -14.01747,15.14017 z"
     id="path17"
     inkscape:connector-curvature="0"
     transform="scale(0.9356543)" />
  <path
     style="fill:#88aa00;fill-opacity:1;stroke-width:2.16949153"
     d="m 186.35932,331.40057 c -2.38644,-2.84612 -15.32203,-17.10191 -28.74576,-31.67953 -13.42373,-14.57763 -24.40678,-27.79323 -24.40678,-29.36801 0,-7.54103 45.15145,-30.85808 73.64841,-38.03341 16.31107,-4.107 22.39471,-4.48794 55.32204,-3.46404 37.50457,1.16623 46.9297,2.80911 70.62277,12.31012 14.02216,5.62295 47.72881,25.58039 47.72881,28.25985 0,1.92473 -17.31089,21.39331 -45.05092,50.6662 l -16.12287,17.01379 -12.26056,-5.44519 c -32.78235,-14.55939 -65.66786,-15.3265 -96.85205,-2.25925 -18.39536,7.70829 -19.05032,7.76312 -23.88309,1.99947 z"
     id="path19"
     inkscape:connector-curvature="0"
     transform="scale(0.9356543)" />
  <path
     style="fill:#ffffff;fill-opacity:1;stroke-width:2.16949153"
     d="m 73.022601,210.25755 c -22.304966,-23.9169 -30.07255,-33.60405 -28.481968,-35.52058 3.969691,-4.78319 43.856607,-30.65388 62.653847,-40.63734 24.11862,-12.80972 65.60524,-26.56006 92.46437,-30.64642 32.59756,-4.959408 92.94709,-4.441733 119.1099,1.02172 25.75935,5.3792 60.32481,16.8213 82.25881,27.22987 16.97043,8.05318 58.96717,35.00522 64.00635,41.07707 3.5911,4.32702 0.1024,8.93662 -32.82566,43.37171 l -24.75611,25.88917 -21.28041,-13.34388 c -22.37249,-14.02866 -45.58388,-24.003 -72.83033,-31.29646 -21.08236,-5.64343 -71.43867,-7.72643 -95.10957,-3.93424 -33.12005,5.30599 -69.20028,19.63713 -97.79891,38.84592 -6.69641,4.49776 -13.20265,8.77425 -14.45831,9.5033 -1.25566,0.72905 -16.084063,-13.47287 -32.952009,-31.55984 z"
     id="path21"
     inkscape:connector-curvature="0"
     transform="scale(0.9356543)" />
</svg>
