<svg id="Capa_1" enable-background="new 0 0 479.055 479.055" height="512" viewBox="0 0 479.055 479.055" width="512" xmlns="http://www.w3.org/2000/svg"><path d="m474.309 152.643c-64.107-59.824-147.483-92.762-234.777-92.762-87.177 0-170.568 33.245-234.807 93.61-6.023 5.658-6.33 15.117-.673 21.14l224.558 239.806c2.822 3.026 6.784 4.737 10.921 4.737h.015c4.137 0 8.099-1.725 10.936-4.751l224.558-240.611c2.705-2.909 4.152-6.769 4.006-10.731-.132-3.976-1.843-7.719-4.737-10.438zm-356.264 99.923c34.515-27.743 77.055-42.98 121.486-42.98 44.272 0 86.733 15.17 121.219 42.788l-61.861 66.291c-35.321-24.073-83.659-24-118.876.077 0 0-61.968-66.176-61.968-66.176zm121.472 129.723-38.917-41.562c23.571-14.141 54.116-14.205 77.759-.06-.001 0-38.842 41.622-38.842 41.622zm141.659-151.802c-40.087-32.777-89.754-50.842-141.644-50.842-52.057 0-101.819 18.145-141.944 51.074l-61.24-65.401c57.002-48.786 128.58-75.496 203.184-75.496 74.692 0 146.27 26.432 203.155 74.75 0 0-61.511 65.915-61.511 65.915z"/></svg>